<?xml version="1.0" encoding="UTF-8"?>
<svg version="1.1" xmlns="http://www.w3.org/2000/svg" width="640" height="427">
<path d="M0 0 C211.2 0 422.4 0 640 0 C640 140.91 640 281.82 640 427 C428.8 427 217.6 427 0 427 C0 286.09 0 145.18 0 0 Z " fill="#003398" transform="translate(0,0)"/>
<path d="M0 0 C1.46491151 2.79607022 2.62245922 5.57006766 3.625 8.5625 C4.01558594 9.70912109 4.01558594 9.70912109 4.4140625 10.87890625 C5 13 5 13 5 16 C10.61 16 16.22 16 22 16 C17.96080655 20.03919345 14.60212178 22.84168113 10 26 C10.20496094 26.73605469 10.40992188 27.47210938 10.62109375 28.23046875 C10.89050781 29.20628906 11.15992188 30.18210937 11.4375 31.1875 C11.70433594 32.15042969 11.97117187 33.11335938 12.24609375 34.10546875 C12.92880018 36.72663697 13.49892195 39.338935 14 42 C10.04787417 40.17180574 6.7742446 37.66881851 3.31640625 35.046875 C1.02354302 33.72484318 1.02354302 33.72484318 -1.484375 34.6015625 C-4.14695054 36.0816899 -6.4411892 37.71379428 -8.8125 39.625 C-9.60269531 40.25664062 -10.39289063 40.88828125 -11.20703125 41.5390625 C-11.79871094 42.02117187 -12.39039063 42.50328125 -13 43 C-14 41 -14 41 -13.1875 38.3203125 C-12.3975338 36.19467977 -11.60587396 34.06967567 -10.8125 31.9453125 C-9.77304502 28.34021775 -9.77304502 28.34021775 -11 25 C-13.52515698 22.80447414 -13.52515698 22.80447414 -16.5625 20.8125 C-18.38737267 19.55949826 -20.2035042 18.29335859 -22 17 C-22 16.67 -22 16.34 -22 16 C-16.39 16 -10.78 16 -5 16 C-4.731875 14.659375 -4.46375 13.31875 -4.1875 11.9375 C-3.2472894 7.66258564 -1.85261989 3.95786976 0 0 Z " fill="#F3C407" transform="translate(391,313)"/>
<path d="M0 0 C0.66 0 1.32 0 2 0 C2.67220351 1.93558599 3.33758077 3.87354372 4 5.8125 C4.556875 7.43091797 4.556875 7.43091797 5.125 9.08203125 C6 12 6 12 6 15 C11.61 15 17.22 15 23 15 C18.96080655 19.03919345 15.60212178 21.84168113 11 25 C12.23876645 30.69305433 13.56276003 36.35370013 15 42 C13.58235006 41.06398754 12.16592432 40.1261208 10.75 39.1875 C9.96109375 38.66542969 9.1721875 38.14335937 8.359375 37.60546875 C6 36 6 36 4.015625 34.17578125 C2.01569568 32.69802558 2.01569568 32.69802558 -0.44921875 33.5859375 C-3.12707363 35.07044511 -5.4292712 36.70418873 -7.8125 38.625 C-8.60269531 39.25664062 -9.39289063 39.88828125 -10.20703125 40.5390625 C-10.79871094 41.02117187 -11.39039063 41.50328125 -12 42 C-13 40 -13 40 -12.1875 37.3203125 C-11.3975338 35.19467977 -10.60587396 33.06967567 -9.8125 30.9453125 C-8.77304502 27.34021775 -8.77304502 27.34021775 -10 24 C-12.52515698 21.80447414 -12.52515698 21.80447414 -15.5625 19.8125 C-17.38737267 18.55949826 -19.2035042 17.29335859 -21 16 C-21 15.67 -21 15.34 -21 15 C-15.39 15 -9.78 15 -4 15 C-3.71125 13.63875 -3.4225 12.2775 -3.125 10.875 C-2.30268853 7.15697742 -1.28811966 3.58833335 0 0 Z " fill="#F4C506" transform="translate(319,333)"/>
<path d="M0 0 C2 1 2 1 3.0703125 3.87109375 C3.41835937 5.04800781 3.76640625 6.22492188 4.125 7.4375 C4.47820312 8.61183594 4.83140625 9.78617187 5.1953125 10.99609375 C6 14 6 14 6 16 C11.61 16 17.22 16 23 16 C20.23554753 18.76445247 17.84372312 20.98126971 14.75 23.25 C14.04359375 23.77078125 13.3371875 24.2915625 12.609375 24.828125 C12.07828125 25.21484375 11.5471875 25.6015625 11 26 C11.19916016 26.85271484 11.19916016 26.85271484 11.40234375 27.72265625 C12.4884758 32.47151097 13.38312382 37.16780324 14 42 C13.40832031 41.59007812 12.81664062 41.18015625 12.20703125 40.7578125 C11.02173828 39.94957031 11.02173828 39.94957031 9.8125 39.125 C9.03519531 38.59132813 8.25789063 38.05765625 7.45703125 37.5078125 C3.92198561 35.29154411 3.92198561 35.29154411 0 34 C-2.94486205 35.51261135 -2.94486205 35.51261135 -5.6875 37.875 C-10.85423729 42 -10.85423729 42 -13 42 C-12.79503906 41.26394531 -12.59007812 40.52789062 -12.37890625 39.76953125 C-11.97478516 38.30580078 -11.97478516 38.30580078 -11.5625 36.8125 C-11.29566406 35.84957031 -11.02882812 34.88664062 -10.75390625 33.89453125 C-10.07119982 31.27336303 -9.50107805 28.661065 -9 26 C-10.299375 25.04287109 -10.299375 25.04287109 -11.625 24.06640625 C-12.75012461 23.23193883 -13.87511788 22.39729428 -15 21.5625 C-15.57234375 21.14162109 -16.1446875 20.72074219 -16.734375 20.28710938 C-18.17453919 19.21555864 -19.58951996 18.11033324 -21 17 C-21 16.67 -21 16.34 -21 16 C-15.39 16 -9.78 16 -4 16 C-3.71125 14.47375 -3.4225 12.9475 -3.125 11.375 C-2.34702314 7.4628878 -1.38176148 3.75049545 0 0 Z " fill="#F4C506" transform="translate(196,261)"/>
<path d="M0 0 C2 1 2 1 3.0703125 3.6171875 C3.41835937 4.69226563 3.76640625 5.76734375 4.125 6.875 C4.47820312 7.94492187 4.83140625 9.01484375 5.1953125 10.1171875 C6 13 6 13 6 16 C11.61 16 17.22 16 23 16 C20.23554753 18.76445247 17.84372312 20.98126971 14.75 23.25 C14.04359375 23.77078125 13.3371875 24.2915625 12.609375 24.828125 C12.07828125 25.21484375 11.5471875 25.6015625 11 26 C11.19916016 26.85271484 11.19916016 26.85271484 11.40234375 27.72265625 C12.4884758 32.47151097 13.38312382 37.16780324 14 42 C13.40832031 41.59007812 12.81664062 41.18015625 12.20703125 40.7578125 C11.02173828 39.94957031 11.02173828 39.94957031 9.8125 39.125 C9.03519531 38.59132813 8.25789063 38.05765625 7.45703125 37.5078125 C3.92249839 35.29007052 3.92249839 35.29007052 0 34 C-3.01329996 35.50786789 -3.01329996 35.50786789 -5.8125 37.875 C-6.78832031 38.63554687 -7.76414063 39.39609375 -8.76953125 40.1796875 C-9.50558594 40.78039062 -10.24164063 41.38109375 -11 42 C-11.66 41.67 -12.32 41.34 -13 41 C-12.69964844 40.09636719 -12.39929688 39.19273437 -12.08984375 38.26171875 C-11.70957031 37.08222656 -11.32929688 35.90273438 -10.9375 34.6875 C-10.55464844 33.51574219 -10.17179688 32.34398437 -9.77734375 31.13671875 C-8.70290156 27.9993903 -8.70290156 27.9993903 -10 25 C-11.80088618 23.55591967 -13.66449127 22.18881958 -15.5625 20.875 C-17.38965012 19.60414145 -19.20643925 18.31783871 -21 17 C-21 16.67 -21 16.34 -21 16 C-15.39 16 -9.78 16 -4 16 C-3.71125 14.659375 -3.4225 13.31875 -3.125 11.9375 C-2.23161019 7.90448315 -1.17902059 3.95814055 0 0 Z " fill="#F3C506" transform="translate(248,313)"/>
<path d="M0 0 C1.86610926 2.79916389 2.68785383 4.81938269 3.625 8 C3.88539063 8.86625 4.14578125 9.7325 4.4140625 10.625 C5 13 5 13 5 16 C10.61 16 16.22 16 22 16 C17.96080655 20.03919345 14.60212178 22.84168113 10 26 C10.20496094 26.73605469 10.40992188 27.47210938 10.62109375 28.23046875 C10.89050781 29.20628906 11.15992188 30.18210937 11.4375 31.1875 C11.70433594 32.15042969 11.97117187 33.11335938 12.24609375 34.10546875 C12.92880018 36.72663697 13.49892195 39.338935 14 42 C10.17785687 40.25492351 7.28268897 37.84832642 4.09765625 35.14453125 C2.03871 33.7875302 2.03871 33.7875302 -0.453125 34.1015625 C-3.43004419 35.15170271 -5.37673262 36.56298946 -7.8125 38.5625 C-8.60269531 39.20316406 -9.39289063 39.84382813 -10.20703125 40.50390625 C-10.79871094 40.99761719 -11.39039063 41.49132812 -12 42 C-13.56393356 38.02623171 -12.36145292 35.18622097 -11.0625 31.25 C-10.68222656 30.07953125 -10.30195313 28.9090625 -9.91015625 27.703125 C-9.60980469 26.81109375 -9.30945313 25.9190625 -9 25 C-9.73605469 24.73316406 -10.47210938 24.46632813 -11.23046875 24.19140625 C-13.93958522 23.02598943 -15.97994164 21.72535547 -18.3125 19.9375 C-19.00988281 19.41027344 -19.70726562 18.88304687 -20.42578125 18.33984375 C-20.94527344 17.89769531 -21.46476562 17.45554687 -22 17 C-22 16.67 -22 16.34 -22 16 C-16.39 16 -10.78 16 -5 16 C-4.54625 14.1025 -4.0925 12.205 -3.625 10.25 C-2.74541487 6.57173491 -1.84790538 3.31016094 0 0 Z " fill="#F4C506" transform="translate(443,261)"/>
<path d="M0 0 C1.73546076 2.60319113 2.65175233 4.52267237 3.625 7.4375 C4.01558594 8.58025391 4.01558594 8.58025391 4.4140625 9.74609375 C5 12 5 12 5 16 C10.61 16 16.22 16 22 16 C17.96080655 20.03919345 14.60212178 22.84168113 10 26 C10.20496094 26.73605469 10.40992188 27.47210938 10.62109375 28.23046875 C10.89050781 29.20628906 11.15992188 30.18210938 11.4375 31.1875 C11.70433594 32.15042969 11.97117187 33.11335938 12.24609375 34.10546875 C12.92880018 36.72663697 13.49892195 39.338935 14 42 C10.46310538 40.0581755 7.40864252 38.3599946 4.375 35.6875 C2.16446725 33.7373087 2.16446725 33.7373087 -0.34765625 34.171875 C-3.44289052 35.13828099 -5.31316395 36.51080623 -7.8125 38.5625 C-8.60269531 39.20316406 -9.39289063 39.84382813 -10.20703125 40.50390625 C-10.79871094 40.99761719 -11.39039063 41.49132812 -12 42 C-13.56393356 38.02623171 -12.36145292 35.18622097 -11.0625 31.25 C-10.68222656 30.07953125 -10.30195313 28.9090625 -9.91015625 27.703125 C-9.60980469 26.81109375 -9.30945313 25.9190625 -9 25 C-9.56203125 24.73316406 -10.1240625 24.46632812 -10.703125 24.19140625 C-13.1672667 22.91323751 -15.43892201 21.47444239 -17.75 19.9375 C-18.54921875 19.41027344 -19.3484375 18.88304687 -20.171875 18.33984375 C-20.77515625 17.89769531 -21.3784375 17.45554688 -22 17 C-22 16.67 -22 16.34 -22 16 C-16.39 16 -10.78 16 -5 16 C-4.54625 14.1025 -4.0925 12.205 -3.625 10.25 C-2.74541487 6.57173491 -1.84790538 3.31016094 0 0 Z " fill="#F6C605" transform="translate(462,190)"/>
<path d="M0 0 C2 1 2 1 3.0703125 3.87109375 C3.41835937 5.04800781 3.76640625 6.22492188 4.125 7.4375 C4.47820312 8.61183594 4.83140625 9.78617188 5.1953125 10.99609375 C6 14 6 14 6 16 C11.61 16 17.22 16 23 16 C20.3998525 18.6001475 18.28520326 20.67311485 15.375 22.75 C14.78460938 23.17796875 14.19421875 23.6059375 13.5859375 24.046875 C12 25 12 25 10 25 C10.30035156 25.89203125 10.60070312 26.7840625 10.91015625 27.703125 C11.29042969 28.87359375 11.67070312 30.0440625 12.0625 31.25 C12.44535156 32.41015625 12.82820313 33.5703125 13.22265625 34.765625 C13.95211763 37.80077085 14.11889082 39.15703213 13 42 C12.25234375 41.41089844 11.5046875 40.82179687 10.734375 40.21484375 C9.74953125 39.46332031 8.7646875 38.71179688 7.75 37.9375 C6.77546875 37.18339844 5.8009375 36.42929688 4.796875 35.65234375 C2.24424008 33.81629846 2.24424008 33.81629846 -0.0703125 34.03125 C-2.5349466 35.26855619 -4.50106309 36.80439169 -6.625 38.5625 C-10.78873239 42 -10.78873239 42 -13 42 C-12.79503906 41.26394531 -12.59007812 40.52789062 -12.37890625 39.76953125 C-11.97478516 38.30580078 -11.97478516 38.30580078 -11.5625 36.8125 C-11.29566406 35.84957031 -11.02882812 34.88664062 -10.75390625 33.89453125 C-10.07119982 31.27336303 -9.50107805 28.661065 -9 26 C-10.299375 25.04287109 -10.299375 25.04287109 -11.625 24.06640625 C-12.75012461 23.23193883 -13.87511788 22.39729428 -15 21.5625 C-15.57234375 21.14162109 -16.1446875 20.72074219 -16.734375 20.28710938 C-18.17453919 19.21555864 -19.58951996 18.11033324 -21 17 C-21 16.67 -21 16.34 -21 16 C-15.39 16 -9.78 16 -4 16 C-3.67 13.69 -3.34 11.38 -3 9 C-2.52801643 7.3394982 -2.01334939 5.68990044 -1.4375 4.0625 C-1.16808594 3.29035156 -0.89867187 2.51820313 -0.62109375 1.72265625 C-0.41613281 1.15417969 -0.21117187 0.58570313 0 0 Z " fill="#F6C605" transform="translate(177,190)"/>
<path d="M0 0 C1.73546076 2.60319113 2.65175233 4.52267237 3.625 7.4375 C4.01558594 8.58025391 4.01558594 8.58025391 4.4140625 9.74609375 C5 12 5 12 5 16 C10.61 16 16.22 16 22 16 C19.23554753 18.76445247 16.84372312 20.98126971 13.75 23.25 C13.04359375 23.77078125 12.3371875 24.2915625 11.609375 24.828125 C11.07828125 25.21484375 10.5471875 25.6015625 10 26 C10.20496094 26.73605469 10.40992188 27.47210938 10.62109375 28.23046875 C10.89050781 29.20628906 11.15992188 30.18210938 11.4375 31.1875 C11.70433594 32.15042969 11.97117187 33.11335938 12.24609375 34.10546875 C12.92880018 36.72663697 13.49892195 39.338935 14 42 C10.46310538 40.0581755 7.40864252 38.3599946 4.375 35.6875 C2.16446725 33.7373087 2.16446725 33.7373087 -0.34765625 34.171875 C-3.44289052 35.13828099 -5.31316395 36.51080623 -7.8125 38.5625 C-8.60269531 39.20316406 -9.39289063 39.84382813 -10.20703125 40.50390625 C-10.79871094 40.99761719 -11.39039063 41.49132812 -12 42 C-12.66 41.67 -13.32 41.34 -14 41 C-12.35 35.72 -10.7 30.44 -9 25 C-10.32 24.34 -11.64 23.68 -13 23 C-14.59813064 22.00249131 -16.18132597 20.9807195 -17.75 19.9375 C-18.54921875 19.41027344 -19.3484375 18.88304687 -20.171875 18.33984375 C-20.77515625 17.89769531 -21.3784375 17.45554688 -22 17 C-22 16.67 -22 16.34 -22 16 C-16.39 16 -10.78 16 -5 16 C-4.731875 14.659375 -4.46375 13.31875 -4.1875 11.9375 C-3.2472894 7.66258564 -1.85261989 3.95786976 0 0 Z " fill="#F5C605" transform="translate(443,119)"/>
<path d="M0 0 C2 1 2 1 3.0703125 3.6171875 C3.41835937 4.69226563 3.76640625 5.76734375 4.125 6.875 C4.47820312 7.94492188 4.83140625 9.01484375 5.1953125 10.1171875 C6 13 6 13 6 16 C11.61 16 17.22 16 23 16 C20.3998525 18.6001475 18.28520326 20.67311485 15.375 22.75 C14.78460938 23.17796875 14.19421875 23.6059375 13.5859375 24.046875 C12 25 12 25 10 25 C12.475 33.415 12.475 33.415 15 42 C11.13130095 40.06565048 8.36047751 37.91436163 5.09765625 35.14453125 C3.04326924 33.78981045 3.04326924 33.78981045 0.578125 34.1015625 C-2.48086189 35.16757308 -4.70269669 36.64864424 -7.3125 38.5625 C-8.63701172 39.52349609 -8.63701172 39.52349609 -9.98828125 40.50390625 C-10.65214844 40.99761719 -11.31601563 41.49132812 -12 42 C-13 40 -13 40 -12.00390625 36.5234375 C-11.53099953 35.13802064 -11.05018356 33.75528453 -10.5625 32.375 C-10.31951172 31.66859375 -10.07652344 30.9621875 -9.82617188 30.234375 C-9.22412795 28.48726713 -8.61291983 26.74332214 -8 25 C-8.73605469 24.73316406 -9.47210938 24.46632812 -10.23046875 24.19140625 C-12.93958522 23.02598943 -14.97994164 21.72535547 -17.3125 19.9375 C-18.00988281 19.41027344 -18.70726562 18.88304687 -19.42578125 18.33984375 C-19.94527344 17.89769531 -20.46476563 17.45554688 -21 17 C-21 16.67 -21 16.34 -21 16 C-15.39 16 -9.78 16 -4 16 C-3.67 13.69 -3.34 11.38 -3 9 C-2.52801643 7.3394982 -2.01334939 5.68990044 -1.4375 4.0625 C-1.16808594 3.29035156 -0.89867187 2.51820312 -0.62109375 1.72265625 C-0.41613281 1.15417969 -0.21117187 0.58570312 0 0 Z " fill="#F5C605" transform="translate(196,119)"/>
<path d="M0 0 C1.73546076 2.60319113 2.65175233 4.52267237 3.625 7.4375 C4.01558594 8.58025391 4.01558594 8.58025391 4.4140625 9.74609375 C5 12 5 12 5 16 C10.61 16 16.22 16 22 16 C19.3998525 18.6001475 17.28520326 20.67311485 14.375 22.75 C13.78460938 23.17796875 13.19421875 23.6059375 12.5859375 24.046875 C11 25 11 25 9 25 C9.55880859 26.58941406 9.55880859 26.58941406 10.12890625 28.2109375 C10.60716405 29.59882289 11.08500722 30.98685122 11.5625 32.375 C11.80935547 33.07367188 12.05621094 33.77234375 12.31054688 34.4921875 C12.93091049 36.30959075 13.47106524 38.15391397 14 40 C13.505 40.99 13.505 40.99 13 42 C12.26394531 41.41089844 11.52789062 40.82179687 10.76953125 40.21484375 C9.79371094 39.46332031 8.81789063 38.71179688 7.8125 37.9375 C6.84957031 37.18339844 5.88664062 36.42929688 4.89453125 35.65234375 C2.18451812 33.78147954 2.18451812 33.78147954 -0.5625 34.03125 C-3.41970716 35.16680669 -5.43797277 36.61326123 -7.8125 38.5625 C-8.60269531 39.20316406 -9.39289063 39.84382813 -10.20703125 40.50390625 C-10.79871094 40.99761719 -11.39039063 41.49132812 -12 42 C-12.66 41.67 -13.32 41.34 -14 41 C-12.35 35.72 -10.7 30.44 -9 25 C-10.32 24.34 -11.64 23.68 -13 23 C-14.59813064 22.00249131 -16.18132597 20.9807195 -17.75 19.9375 C-18.54921875 19.41027344 -19.3484375 18.88304688 -20.171875 18.33984375 C-20.77515625 17.89769531 -21.3784375 17.45554687 -22 17 C-22 16.67 -22 16.34 -22 16 C-16.39 16 -10.78 16 -5 16 C-4.731875 14.659375 -4.46375 13.31875 -4.1875 11.9375 C-3.2472894 7.66258564 -1.85261989 3.95786976 0 0 Z " fill="#F6C605" transform="translate(391,67)"/>
<path d="M0 0 C2 1 2 1 3.0703125 3.6171875 C3.41835937 4.69226563 3.76640625 5.76734375 4.125 6.875 C4.47820312 7.94492188 4.83140625 9.01484375 5.1953125 10.1171875 C6 13 6 13 6 16 C11.61 16 17.22 16 23 16 C21.35 17.32 19.7 18.64 18 20 C16.9348928 20.91363597 15.87190897 21.82976272 14.8125 22.75 C12 25 12 25 10 25 C12.475 33.415 12.475 33.415 15 42 C11.13130095 40.06565048 8.36047751 37.91436163 5.09765625 35.14453125 C3.04326924 33.78981045 3.04326924 33.78981045 0.578125 34.1015625 C-2.48086189 35.16757308 -4.70269669 36.64864424 -7.3125 38.5625 C-8.63701172 39.52349609 -8.63701172 39.52349609 -9.98828125 40.50390625 C-10.65214844 40.99761719 -11.31601563 41.49132812 -12 42 C-13 40 -13 40 -12.00390625 36.5234375 C-11.53099953 35.13802064 -11.05018356 33.75528453 -10.5625 32.375 C-10.31951172 31.66859375 -10.07652344 30.9621875 -9.82617188 30.234375 C-9.22412795 28.48726713 -8.61291983 26.74332214 -8 25 C-8.56203125 24.73316406 -9.1240625 24.46632813 -9.703125 24.19140625 C-12.1672667 22.91323751 -14.43892201 21.47444239 -16.75 19.9375 C-17.54921875 19.41027344 -18.3484375 18.88304688 -19.171875 18.33984375 C-19.77515625 17.89769531 -20.3784375 17.45554687 -21 17 C-21 16.67 -21 16.34 -21 16 C-15.39 16 -9.78 16 -4 16 C-3.67 13.69 -3.34 11.38 -3 9 C-2.52801643 7.3394982 -2.01334939 5.68990044 -1.4375 4.0625 C-1.16808594 3.29035156 -0.89867187 2.51820312 -0.62109375 1.72265625 C-0.41613281 1.15417969 -0.21117187 0.58570312 0 0 Z " fill="#F6C605" transform="translate(248,67)"/>
<path d="M0 0 C0.66 0 1.32 0 2 0 C2.67184618 2.10251861 3.33730968 4.20707763 4 6.3125 C4.37125 7.48425781 4.7425 8.65601563 5.125 9.86328125 C6 13 6 13 6 16 C11.61 16 17.22 16 23 16 C20.3998525 18.6001475 18.28520326 20.67311485 15.375 22.75 C14.78460938 23.17796875 14.19421875 23.6059375 13.5859375 24.046875 C12 25 12 25 10 25 C10.28875 25.81984375 10.5775 26.6396875 10.875 27.484375 C11.24625 28.56203125 11.6175 29.6396875 12 30.75 C12.37125 31.81734375 12.7425 32.8846875 13.125 33.984375 C14 37 14 37 14 41 C11.18473691 39.76128424 8.96377567 38.19996559 6.5625 36.3125 C3.83412238 34.36749511 3.83412238 34.36749511 0.5625 33.8125 C-2.74635941 35.34587388 -5.40706526 37.42830351 -8.23046875 39.72265625 C-10 41 -10 41 -12 41 C-11.39891424 35.34979382 -9.92471317 30.33835539 -8 25 C-8.56203125 24.73316406 -9.1240625 24.46632813 -9.703125 24.19140625 C-12.1672667 22.91323751 -14.43892201 21.47444239 -16.75 19.9375 C-17.54921875 19.41027344 -18.3484375 18.88304688 -19.171875 18.33984375 C-19.77515625 17.89769531 -20.3784375 17.45554687 -21 17 C-21 16.67 -21 16.34 -21 16 C-15.39 16 -9.78 16 -4 16 C-3.71125 14.659375 -3.4225 13.31875 -3.125 11.9375 C-2.23161019 7.90448315 -1.17902059 3.95814055 0 0 Z " fill="#F6C605" transform="translate(319,48)"/>
</svg>
